<mxfile host="app.diagrams.net" modified="2021-12-09T06:18:04.603Z" agent="5.0 (Windows NT 10.0; Win64; x64) AppleWebKit/537.36 (KHTML, like Gecko) Chrome/96.0.4664.55 Safari/537.36 Edg/96.0.1054.43" etag="4RbuF6HI9cy4jnwS6wqR" version="15.9.4" type="github">
  <diagram id="HuBz3THiar33q1hUI0Xo" name="第 1 页">
    <mxGraphModel dx="1054" dy="816" grid="1" gridSize="10" guides="1" tooltips="1" connect="1" arrows="1" fold="1" page="1" pageScale="1" pageWidth="827" pageHeight="1169" math="0" shadow="0">
      <root>
        <mxCell id="0" />
        <mxCell id="1" parent="0" />
        <mxCell id="TaO54KB7iHVv9lVQ6owf-1" value="用户&lt;br&gt;" style="shape=umlActor;verticalLabelPosition=bottom;verticalAlign=top;html=1;outlineConnect=0;" vertex="1" parent="1">
          <mxGeometry x="60" y="70" width="20" height="40" as="geometry" />
        </mxCell>
        <mxCell id="TaO54KB7iHVv9lVQ6owf-12" value="" style="endArrow=none;dashed=1;html=1;dashPattern=1 3;strokeWidth=2;rounded=0;entryX=0.5;entryY=0.5;entryDx=0;entryDy=0;entryPerimeter=0;startArrow=none;" edge="1" parent="1" source="TaO54KB7iHVv9lVQ6owf-22" target="TaO54KB7iHVv9lVQ6owf-1">
          <mxGeometry width="50" height="50" relative="1" as="geometry">
            <mxPoint x="70" y="862.0460420496323" as="sourcePoint" />
            <mxPoint x="90" y="210" as="targetPoint" />
          </mxGeometry>
        </mxCell>
        <mxCell id="TaO54KB7iHVv9lVQ6owf-14" value="登陆界面" style="shape=umlLifeline;perimeter=lifelinePerimeter;whiteSpace=wrap;html=1;container=1;collapsible=0;recursiveResize=0;outlineConnect=0;fillColor=#00CCCC;" vertex="1" parent="1">
          <mxGeometry x="170" y="70" width="100" height="930" as="geometry" />
        </mxCell>
        <mxCell id="TaO54KB7iHVv9lVQ6owf-21" value="" style="html=1;points=[];perimeter=orthogonalPerimeter;fillColor=#66CC00;" vertex="1" parent="TaO54KB7iHVv9lVQ6owf-14">
          <mxGeometry x="45" y="90" width="10" height="760" as="geometry" />
        </mxCell>
        <mxCell id="TaO54KB7iHVv9lVQ6owf-49" value="2.身份验证" style="html=1;verticalAlign=bottom;endArrow=block;rounded=0;fillColor=#FFFF33;" edge="1" parent="TaO54KB7iHVv9lVQ6owf-14" target="TaO54KB7iHVv9lVQ6owf-17">
          <mxGeometry width="80" relative="1" as="geometry">
            <mxPoint x="45" y="128.82" as="sourcePoint" />
            <mxPoint x="125" y="128.82" as="targetPoint" />
            <Array as="points">
              <mxPoint x="85" y="128.82" />
            </Array>
          </mxGeometry>
        </mxCell>
        <mxCell id="TaO54KB7iHVv9lVQ6owf-17" value="管理员界面" style="shape=umlLifeline;perimeter=lifelinePerimeter;whiteSpace=wrap;html=1;container=1;collapsible=0;recursiveResize=0;outlineConnect=0;fillColor=#00CCCC;" vertex="1" parent="1">
          <mxGeometry x="330" y="70" width="100" height="930" as="geometry" />
        </mxCell>
        <mxCell id="TaO54KB7iHVv9lVQ6owf-24" value="" style="html=1;points=[];perimeter=orthogonalPerimeter;fillColor=#66CC00;" vertex="1" parent="TaO54KB7iHVv9lVQ6owf-17">
          <mxGeometry x="45" y="130" width="10" height="270" as="geometry" />
        </mxCell>
        <mxCell id="TaO54KB7iHVv9lVQ6owf-50" value="3.1创建用户" style="html=1;verticalAlign=bottom;endArrow=block;rounded=0;fillColor=#FFFF33;" edge="1" parent="TaO54KB7iHVv9lVQ6owf-17" target="TaO54KB7iHVv9lVQ6owf-19">
          <mxGeometry width="80" relative="1" as="geometry">
            <mxPoint x="60" y="130" as="sourcePoint" />
            <mxPoint x="140" y="130" as="targetPoint" />
          </mxGeometry>
        </mxCell>
        <mxCell id="TaO54KB7iHVv9lVQ6owf-64" value="5.身份验证" style="html=1;verticalAlign=bottom;endArrow=block;rounded=0;fillColor=#FFFF33;" edge="1" parent="TaO54KB7iHVv9lVQ6owf-17">
          <mxGeometry width="80" relative="1" as="geometry">
            <mxPoint x="-100" y="440" as="sourcePoint" />
            <mxPoint x="224.75000000000023" y="440" as="targetPoint" />
            <Array as="points">
              <mxPoint x="35.25" y="440" />
            </Array>
          </mxGeometry>
        </mxCell>
        <mxCell id="TaO54KB7iHVv9lVQ6owf-85" value="5.返回登录窗口" style="text;html=1;align=center;verticalAlign=middle;resizable=0;points=[];autosize=1;strokeColor=none;fillColor=none;" vertex="1" parent="TaO54KB7iHVv9lVQ6owf-17">
          <mxGeometry y="810" width="100" height="20" as="geometry" />
        </mxCell>
        <mxCell id="TaO54KB7iHVv9lVQ6owf-18" value="用户界面" style="shape=umlLifeline;perimeter=lifelinePerimeter;whiteSpace=wrap;html=1;container=1;collapsible=0;recursiveResize=0;outlineConnect=0;fillColor=#00CCCC;" vertex="1" parent="1">
          <mxGeometry x="510" y="70" width="100" height="930" as="geometry" />
        </mxCell>
        <mxCell id="TaO54KB7iHVv9lVQ6owf-29" value="" style="html=1;points=[];perimeter=orthogonalPerimeter;fillColor=#66CC00;" vertex="1" parent="TaO54KB7iHVv9lVQ6owf-18">
          <mxGeometry x="45" y="440" width="10" height="410" as="geometry" />
        </mxCell>
        <mxCell id="TaO54KB7iHVv9lVQ6owf-55" value="3.3查看当前用户" style="html=1;verticalAlign=bottom;endArrow=block;rounded=0;fillColor=#FFFF33;" edge="1" parent="TaO54KB7iHVv9lVQ6owf-18">
          <mxGeometry width="80" relative="1" as="geometry">
            <mxPoint x="-125" y="270" as="sourcePoint" />
            <mxPoint x="224.50000000000023" y="270" as="targetPoint" />
            <Array as="points">
              <mxPoint x="5" y="270" />
            </Array>
          </mxGeometry>
        </mxCell>
        <mxCell id="TaO54KB7iHVv9lVQ6owf-56" value="3.4修改密码" style="html=1;verticalAlign=bottom;endArrow=block;rounded=0;fillColor=#FFFF33;" edge="1" parent="TaO54KB7iHVv9lVQ6owf-18">
          <mxGeometry width="80" relative="1" as="geometry">
            <mxPoint x="-124.75" y="350" as="sourcePoint" />
            <mxPoint x="224.75000000000023" y="350" as="targetPoint" />
          </mxGeometry>
        </mxCell>
        <mxCell id="TaO54KB7iHVv9lVQ6owf-57" value="" style="html=1;verticalAlign=bottom;endArrow=block;rounded=0;fillColor=#FFFF33;exitX=0.272;exitY=0.983;exitDx=0;exitDy=0;exitPerimeter=0;" edge="1" parent="TaO54KB7iHVv9lVQ6owf-18">
          <mxGeometry width="80" relative="1" as="geometry">
            <mxPoint x="223.86" y="240.32" as="sourcePoint" />
            <mxPoint x="-123.86000000000001" y="239.99999999999983" as="targetPoint" />
          </mxGeometry>
        </mxCell>
        <mxCell id="TaO54KB7iHVv9lVQ6owf-58" value="" style="html=1;verticalAlign=bottom;endArrow=block;rounded=0;fillColor=#FFFF33;exitX=0.272;exitY=0.983;exitDx=0;exitDy=0;exitPerimeter=0;" edge="1" parent="TaO54KB7iHVv9lVQ6owf-18">
          <mxGeometry width="80" relative="1" as="geometry">
            <mxPoint x="227.72000000000003" y="310.32" as="sourcePoint" />
            <mxPoint x="-120" y="309.99999999999983" as="targetPoint" />
          </mxGeometry>
        </mxCell>
        <mxCell id="TaO54KB7iHVv9lVQ6owf-19" value="管理员操作界面" style="shape=umlLifeline;perimeter=lifelinePerimeter;whiteSpace=wrap;html=1;container=1;collapsible=0;recursiveResize=0;outlineConnect=0;fillColor=#00CCCC;" vertex="1" parent="1">
          <mxGeometry x="690" y="70" width="100" height="940" as="geometry" />
        </mxCell>
        <mxCell id="TaO54KB7iHVv9lVQ6owf-25" value="" style="html=1;points=[];perimeter=orthogonalPerimeter;fillColor=#66CC00;strokeColor=#FFD966;" vertex="1" parent="TaO54KB7iHVv9lVQ6owf-19">
          <mxGeometry x="45" y="130" width="10" height="40" as="geometry" />
        </mxCell>
        <mxCell id="TaO54KB7iHVv9lVQ6owf-26" value="" style="html=1;points=[];perimeter=orthogonalPerimeter;fillColor=#66CC00;" vertex="1" parent="TaO54KB7iHVv9lVQ6owf-19">
          <mxGeometry x="45" y="200" width="10" height="40" as="geometry" />
        </mxCell>
        <mxCell id="TaO54KB7iHVv9lVQ6owf-27" value="" style="html=1;points=[];perimeter=orthogonalPerimeter;fillColor=#66CC00;" vertex="1" parent="TaO54KB7iHVv9lVQ6owf-19">
          <mxGeometry x="45" y="270" width="10" height="40" as="geometry" />
        </mxCell>
        <mxCell id="TaO54KB7iHVv9lVQ6owf-28" value="" style="html=1;points=[];perimeter=orthogonalPerimeter;fillColor=#66CC00;" vertex="1" parent="TaO54KB7iHVv9lVQ6owf-19">
          <mxGeometry x="45" y="350" width="10" height="40" as="geometry" />
        </mxCell>
        <mxCell id="TaO54KB7iHVv9lVQ6owf-65" value="6.1创建文件" style="html=1;verticalAlign=bottom;endArrow=block;rounded=0;fillColor=#FFFF33;" edge="1" parent="TaO54KB7iHVv9lVQ6owf-19">
          <mxGeometry width="80" relative="1" as="geometry">
            <mxPoint x="-124.75" y="440" as="sourcePoint" />
            <mxPoint x="224.75000000000023" y="440" as="targetPoint" />
          </mxGeometry>
        </mxCell>
        <mxCell id="TaO54KB7iHVv9lVQ6owf-67" value="6.3创建目录" style="html=1;verticalAlign=bottom;endArrow=block;rounded=0;fillColor=#FFFF33;" edge="1" parent="TaO54KB7iHVv9lVQ6owf-19">
          <mxGeometry width="80" relative="1" as="geometry">
            <mxPoint x="-124.75" y="530" as="sourcePoint" />
            <mxPoint x="224.75000000000023" y="530" as="targetPoint" />
          </mxGeometry>
        </mxCell>
        <mxCell id="TaO54KB7iHVv9lVQ6owf-71" value="6.7打开目录" style="html=1;verticalAlign=bottom;endArrow=block;rounded=0;fillColor=#FFFF33;" edge="1" parent="TaO54KB7iHVv9lVQ6owf-19">
          <mxGeometry width="80" relative="1" as="geometry">
            <mxPoint x="-124.75" y="720" as="sourcePoint" />
            <mxPoint x="224.75000000000023" y="720" as="targetPoint" />
          </mxGeometry>
        </mxCell>
        <mxCell id="TaO54KB7iHVv9lVQ6owf-75" value="" style="html=1;verticalAlign=bottom;endArrow=block;rounded=0;fillColor=#FFFF33;exitX=0.272;exitY=0.983;exitDx=0;exitDy=0;exitPerimeter=0;" edge="1" parent="TaO54KB7iHVv9lVQ6owf-19">
          <mxGeometry width="80" relative="1" as="geometry">
            <mxPoint x="223.86" y="469.73" as="sourcePoint" />
            <mxPoint x="-123.86000000000024" y="469.4099999999996" as="targetPoint" />
          </mxGeometry>
        </mxCell>
        <mxCell id="TaO54KB7iHVv9lVQ6owf-76" value="" style="html=1;verticalAlign=bottom;endArrow=block;rounded=0;fillColor=#FFFF33;exitX=0.272;exitY=0.983;exitDx=0;exitDy=0;exitPerimeter=0;" edge="1" parent="TaO54KB7iHVv9lVQ6owf-19">
          <mxGeometry width="80" relative="1" as="geometry">
            <mxPoint x="223.86" y="520.32" as="sourcePoint" />
            <mxPoint x="-123.86000000000024" y="519.9999999999997" as="targetPoint" />
          </mxGeometry>
        </mxCell>
        <mxCell id="TaO54KB7iHVv9lVQ6owf-77" value="" style="html=1;verticalAlign=bottom;endArrow=block;rounded=0;fillColor=#FFFF33;exitX=0.272;exitY=0.983;exitDx=0;exitDy=0;exitPerimeter=0;" edge="1" parent="TaO54KB7iHVv9lVQ6owf-19">
          <mxGeometry width="80" relative="1" as="geometry">
            <mxPoint x="223.86" y="560" as="sourcePoint" />
            <mxPoint x="-123.86000000000024" y="559.6799999999996" as="targetPoint" />
          </mxGeometry>
        </mxCell>
        <mxCell id="TaO54KB7iHVv9lVQ6owf-78" value="" style="html=1;verticalAlign=bottom;endArrow=block;rounded=0;fillColor=#FFFF33;exitX=0.272;exitY=0.983;exitDx=0;exitDy=0;exitPerimeter=0;" edge="1" parent="TaO54KB7iHVv9lVQ6owf-19">
          <mxGeometry width="80" relative="1" as="geometry">
            <mxPoint x="223.86" y="610" as="sourcePoint" />
            <mxPoint x="-123.86000000000024" y="609.6799999999996" as="targetPoint" />
          </mxGeometry>
        </mxCell>
        <mxCell id="TaO54KB7iHVv9lVQ6owf-79" value="" style="html=1;verticalAlign=bottom;endArrow=block;rounded=0;fillColor=#FFFF33;exitX=0.272;exitY=0.983;exitDx=0;exitDy=0;exitPerimeter=0;" edge="1" parent="TaO54KB7iHVv9lVQ6owf-19">
          <mxGeometry width="80" relative="1" as="geometry">
            <mxPoint x="223.86" y="660.32" as="sourcePoint" />
            <mxPoint x="-123.86000000000024" y="659.9999999999997" as="targetPoint" />
          </mxGeometry>
        </mxCell>
        <mxCell id="TaO54KB7iHVv9lVQ6owf-80" value="" style="html=1;verticalAlign=bottom;endArrow=block;rounded=0;fillColor=#FFFF33;exitX=0.272;exitY=0.983;exitDx=0;exitDy=0;exitPerimeter=0;" edge="1" parent="TaO54KB7iHVv9lVQ6owf-19">
          <mxGeometry width="80" relative="1" as="geometry">
            <mxPoint x="223.86" y="700.32" as="sourcePoint" />
            <mxPoint x="-123.86000000000024" y="699.9999999999997" as="targetPoint" />
          </mxGeometry>
        </mxCell>
        <mxCell id="TaO54KB7iHVv9lVQ6owf-81" value="" style="html=1;verticalAlign=bottom;endArrow=block;rounded=0;fillColor=#FFFF33;exitX=0.272;exitY=0.983;exitDx=0;exitDy=0;exitPerimeter=0;" edge="1" parent="TaO54KB7iHVv9lVQ6owf-19">
          <mxGeometry width="80" relative="1" as="geometry">
            <mxPoint x="223.86" y="750.32" as="sourcePoint" />
            <mxPoint x="-123.86000000000024" y="749.9999999999997" as="targetPoint" />
          </mxGeometry>
        </mxCell>
        <mxCell id="TaO54KB7iHVv9lVQ6owf-20" value="用户操作界面" style="shape=umlLifeline;perimeter=lifelinePerimeter;whiteSpace=wrap;html=1;container=1;collapsible=0;recursiveResize=0;outlineConnect=0;fillColor=#00CCCC;" vertex="1" parent="1">
          <mxGeometry x="870" y="70" width="100" height="940" as="geometry" />
        </mxCell>
        <mxCell id="TaO54KB7iHVv9lVQ6owf-30" value="" style="html=1;points=[];perimeter=orthogonalPerimeter;fillColor=#66CC00;" vertex="1" parent="TaO54KB7iHVv9lVQ6owf-20">
          <mxGeometry x="45" y="440" width="10" height="30" as="geometry" />
        </mxCell>
        <mxCell id="TaO54KB7iHVv9lVQ6owf-36" value="" style="html=1;points=[];perimeter=orthogonalPerimeter;fillColor=#66CC00;" vertex="1" parent="TaO54KB7iHVv9lVQ6owf-20">
          <mxGeometry x="45" y="490" width="10" height="30" as="geometry" />
        </mxCell>
        <mxCell id="TaO54KB7iHVv9lVQ6owf-37" value="" style="html=1;points=[];perimeter=orthogonalPerimeter;fillColor=#66CC00;" vertex="1" parent="TaO54KB7iHVv9lVQ6owf-20">
          <mxGeometry x="45" y="530" width="10" height="30" as="geometry" />
        </mxCell>
        <mxCell id="TaO54KB7iHVv9lVQ6owf-38" value="" style="html=1;points=[];perimeter=orthogonalPerimeter;fillColor=#66CC00;" vertex="1" parent="TaO54KB7iHVv9lVQ6owf-20">
          <mxGeometry x="45" y="580" width="10" height="30" as="geometry" />
        </mxCell>
        <mxCell id="TaO54KB7iHVv9lVQ6owf-39" value="" style="html=1;points=[];perimeter=orthogonalPerimeter;fillColor=#66CC00;" vertex="1" parent="TaO54KB7iHVv9lVQ6owf-20">
          <mxGeometry x="45" y="630" width="10" height="30" as="geometry" />
        </mxCell>
        <mxCell id="TaO54KB7iHVv9lVQ6owf-40" value="" style="html=1;points=[];perimeter=orthogonalPerimeter;fillColor=#66CC00;" vertex="1" parent="TaO54KB7iHVv9lVQ6owf-20">
          <mxGeometry x="45" y="670" width="10" height="30" as="geometry" />
        </mxCell>
        <mxCell id="TaO54KB7iHVv9lVQ6owf-42" value="" style="html=1;points=[];perimeter=orthogonalPerimeter;fillColor=#66CC00;" vertex="1" parent="TaO54KB7iHVv9lVQ6owf-20">
          <mxGeometry x="45" y="720" width="10" height="30" as="geometry" />
        </mxCell>
        <mxCell id="TaO54KB7iHVv9lVQ6owf-41" value="" style="html=1;points=[];perimeter=orthogonalPerimeter;fillColor=#66CC00;" vertex="1" parent="TaO54KB7iHVv9lVQ6owf-20">
          <mxGeometry x="45" y="770" width="10" height="30" as="geometry" />
        </mxCell>
        <mxCell id="TaO54KB7iHVv9lVQ6owf-43" value="" style="html=1;points=[];perimeter=orthogonalPerimeter;fillColor=#66CC00;" vertex="1" parent="TaO54KB7iHVv9lVQ6owf-20">
          <mxGeometry x="45" y="820" width="10" height="30" as="geometry" />
        </mxCell>
        <mxCell id="TaO54KB7iHVv9lVQ6owf-22" value="" style="html=1;points=[];perimeter=orthogonalPerimeter;fillColor=#66CC00;" vertex="1" parent="1">
          <mxGeometry x="65" y="160" width="10" height="240" as="geometry" />
        </mxCell>
        <mxCell id="TaO54KB7iHVv9lVQ6owf-23" value="" style="endArrow=none;dashed=1;html=1;dashPattern=1 3;strokeWidth=2;rounded=0;entryX=0.5;entryY=0.5;entryDx=0;entryDy=0;entryPerimeter=0;startArrow=none;" edge="1" parent="1" source="TaO54KB7iHVv9lVQ6owf-44" target="TaO54KB7iHVv9lVQ6owf-22">
          <mxGeometry width="50" height="50" relative="1" as="geometry">
            <mxPoint x="70" y="990" as="sourcePoint" />
            <mxPoint x="70" y="90" as="targetPoint" />
          </mxGeometry>
        </mxCell>
        <mxCell id="TaO54KB7iHVv9lVQ6owf-44" value="" style="html=1;points=[];perimeter=orthogonalPerimeter;fillColor=#66CC00;" vertex="1" parent="1">
          <mxGeometry x="65" y="900" width="10" height="30" as="geometry" />
        </mxCell>
        <mxCell id="TaO54KB7iHVv9lVQ6owf-45" value="" style="endArrow=none;dashed=1;html=1;dashPattern=1 3;strokeWidth=2;rounded=0;entryX=0.5;entryY=0.5;entryDx=0;entryDy=0;entryPerimeter=0;" edge="1" parent="1" target="TaO54KB7iHVv9lVQ6owf-44">
          <mxGeometry width="50" height="50" relative="1" as="geometry">
            <mxPoint x="70" y="990" as="sourcePoint" />
            <mxPoint x="70" y="280" as="targetPoint" />
          </mxGeometry>
        </mxCell>
        <mxCell id="TaO54KB7iHVv9lVQ6owf-47" value="1.选择模式进入" style="html=1;verticalAlign=bottom;endArrow=block;rounded=0;fillColor=#FFFF33;" edge="1" parent="1" target="TaO54KB7iHVv9lVQ6owf-14">
          <mxGeometry width="80" relative="1" as="geometry">
            <mxPoint x="80" y="160" as="sourcePoint" />
            <mxPoint x="160" y="160" as="targetPoint" />
          </mxGeometry>
        </mxCell>
        <mxCell id="TaO54KB7iHVv9lVQ6owf-52" value="" style="html=1;verticalAlign=bottom;endArrow=block;rounded=0;fillColor=#FFFF33;exitX=0.272;exitY=0.983;exitDx=0;exitDy=0;exitPerimeter=0;" edge="1" parent="1" source="TaO54KB7iHVv9lVQ6owf-25">
          <mxGeometry width="80" relative="1" as="geometry">
            <mxPoint x="670" y="230" as="sourcePoint" />
            <mxPoint x="390" y="239" as="targetPoint" />
          </mxGeometry>
        </mxCell>
        <mxCell id="TaO54KB7iHVv9lVQ6owf-54" value="3.2删除用户" style="html=1;verticalAlign=bottom;endArrow=block;rounded=0;fillColor=#FFFF33;" edge="1" parent="1">
          <mxGeometry width="80" relative="1" as="geometry">
            <mxPoint x="385.25" y="270" as="sourcePoint" />
            <mxPoint x="734.7500000000002" y="270" as="targetPoint" />
          </mxGeometry>
        </mxCell>
        <mxCell id="TaO54KB7iHVv9lVQ6owf-61" value="" style="html=1;verticalAlign=bottom;endArrow=block;rounded=0;fillColor=#FFFF33;exitX=0.272;exitY=0.983;exitDx=0;exitDy=0;exitPerimeter=0;" edge="1" parent="1">
          <mxGeometry width="80" relative="1" as="geometry">
            <mxPoint x="733.86" y="460.32" as="sourcePoint" />
            <mxPoint x="386.14" y="459.99999999999983" as="targetPoint" />
          </mxGeometry>
        </mxCell>
        <mxCell id="TaO54KB7iHVv9lVQ6owf-63" value="4.返回登录窗口" style="html=1;verticalAlign=bottom;endArrow=block;rounded=0;fillColor=#FFFF33;" edge="1" parent="1" source="TaO54KB7iHVv9lVQ6owf-17" target="TaO54KB7iHVv9lVQ6owf-21">
          <mxGeometry width="80" relative="1" as="geometry">
            <mxPoint x="280" y="500" as="sourcePoint" />
            <mxPoint x="360" y="500" as="targetPoint" />
            <Array as="points">
              <mxPoint x="310" y="470" />
            </Array>
          </mxGeometry>
        </mxCell>
        <mxCell id="TaO54KB7iHVv9lVQ6owf-66" value="6.2删除文件" style="html=1;verticalAlign=bottom;endArrow=block;rounded=0;fillColor=#FFFF33;" edge="1" parent="1">
          <mxGeometry width="80" relative="1" as="geometry">
            <mxPoint x="565.25" y="560" as="sourcePoint" />
            <mxPoint x="914.7500000000002" y="560" as="targetPoint" />
          </mxGeometry>
        </mxCell>
        <mxCell id="TaO54KB7iHVv9lVQ6owf-68" value="6.4删除目录" style="html=1;verticalAlign=bottom;endArrow=block;rounded=0;fillColor=#FFFF33;" edge="1" parent="1">
          <mxGeometry width="80" relative="1" as="geometry">
            <mxPoint x="565.25" y="650" as="sourcePoint" />
            <mxPoint x="914.7500000000002" y="650" as="targetPoint" />
          </mxGeometry>
        </mxCell>
        <mxCell id="TaO54KB7iHVv9lVQ6owf-69" value="6.5返回上一目录" style="html=1;verticalAlign=bottom;endArrow=block;rounded=0;fillColor=#FFFF33;" edge="1" parent="1">
          <mxGeometry width="80" relative="1" as="geometry">
            <mxPoint x="565.25" y="700" as="sourcePoint" />
            <mxPoint x="914.7500000000002" y="700" as="targetPoint" />
          </mxGeometry>
        </mxCell>
        <mxCell id="TaO54KB7iHVv9lVQ6owf-70" value="6.6查看当前目录" style="html=1;verticalAlign=bottom;endArrow=block;rounded=0;fillColor=#FFFF33;" edge="1" parent="1">
          <mxGeometry width="80" relative="1" as="geometry">
            <mxPoint x="565.25" y="740" as="sourcePoint" />
            <mxPoint x="914.7500000000002" y="740" as="targetPoint" />
          </mxGeometry>
        </mxCell>
        <mxCell id="TaO54KB7iHVv9lVQ6owf-73" value="6.8修改密码" style="html=1;verticalAlign=bottom;endArrow=block;rounded=0;fillColor=#FFFF33;" edge="1" parent="1">
          <mxGeometry width="80" relative="1" as="geometry">
            <mxPoint x="570" y="840" as="sourcePoint" />
            <mxPoint x="919.5000000000002" y="840" as="targetPoint" />
          </mxGeometry>
        </mxCell>
        <mxCell id="TaO54KB7iHVv9lVQ6owf-74" value="6.9查看指定文件" style="html=1;verticalAlign=bottom;endArrow=block;rounded=0;fillColor=#FFFF33;" edge="1" parent="1">
          <mxGeometry width="80" relative="1" as="geometry">
            <mxPoint x="565.25" y="890" as="sourcePoint" />
            <mxPoint x="914.7500000000002" y="890" as="targetPoint" />
          </mxGeometry>
        </mxCell>
        <mxCell id="TaO54KB7iHVv9lVQ6owf-82" value="" style="html=1;verticalAlign=bottom;endArrow=block;rounded=0;fillColor=#FFFF33;exitX=0.272;exitY=0.983;exitDx=0;exitDy=0;exitPerimeter=0;" edge="1" parent="1">
          <mxGeometry width="80" relative="1" as="geometry">
            <mxPoint x="913.86" y="870.3199999999999" as="sourcePoint" />
            <mxPoint x="566.1399999999998" y="869.9999999999995" as="targetPoint" />
          </mxGeometry>
        </mxCell>
        <mxCell id="TaO54KB7iHVv9lVQ6owf-83" value="" style="html=1;verticalAlign=bottom;endArrow=block;rounded=0;fillColor=#FFFF33;exitX=0.272;exitY=0.983;exitDx=0;exitDy=0;exitPerimeter=0;" edge="1" parent="1">
          <mxGeometry width="80" relative="1" as="geometry">
            <mxPoint x="913.86" y="920.3199999999999" as="sourcePoint" />
            <mxPoint x="566.1399999999998" y="919.9999999999995" as="targetPoint" />
          </mxGeometry>
        </mxCell>
        <mxCell id="TaO54KB7iHVv9lVQ6owf-84" value="" style="html=1;verticalAlign=bottom;endArrow=block;rounded=0;fillColor=#FFFF33;exitX=0.272;exitY=0.983;exitDx=0;exitDy=0;exitPerimeter=0;" edge="1" parent="1">
          <mxGeometry width="80" relative="1" as="geometry">
            <mxPoint x="553.86" y="900.3199999999999" as="sourcePoint" />
            <mxPoint x="230" y="900" as="targetPoint" />
          </mxGeometry>
        </mxCell>
        <mxCell id="TaO54KB7iHVv9lVQ6owf-86" value="" style="html=1;verticalAlign=bottom;endArrow=block;rounded=0;fillColor=#FFFF33;entryX=1.185;entryY=0.21;entryDx=0;entryDy=0;entryPerimeter=0;" edge="1" parent="1" target="TaO54KB7iHVv9lVQ6owf-44">
          <mxGeometry x="-0.0041" width="80" relative="1" as="geometry">
            <mxPoint x="210" y="906" as="sourcePoint" />
            <mxPoint x="80" y="950" as="targetPoint" />
            <Array as="points">
              <mxPoint x="160" y="906" />
            </Array>
            <mxPoint as="offset" />
          </mxGeometry>
        </mxCell>
      </root>
    </mxGraphModel>
  </diagram>
</mxfile>
